<?xml version="1.0" encoding="UTF-8" standalone="no"?>
<!DOCTYPE svg PUBLIC "-//W3C//DTD SVG 1.1//EN"
 "http://www.w3.org/Graphics/SVG/1.1/DTD/svg11.dtd">
<!-- Generated by graphviz version 9.0.0 (20230911.1827)
 -->
<!-- Title: ST Pages: 1 -->
<svg width="566pt" height="414pt"
 viewBox="0.00 0.00 566.00 413.75" xmlns="http://www.w3.org/2000/svg" xmlns:xlink="http://www.w3.org/1999/xlink">
<g id="graph0" class="graph" transform="scale(1 1) rotate(0) translate(4 409.75)">
<title>ST</title>
<polygon fill="white" stroke="none" points="-4,4 -4,-409.75 562,-409.75 562,4 -4,4"/>
<g id="clust1" class="cluster">
<title>cluster_clients</title>
<polygon fill="none" stroke="black" points="171.5,-102 171.5,-178 540.5,-178 540.5,-102 171.5,-102"/>
<text text-anchor="middle" x="356" y="-160.7" font-family="Times,serif" font-size="14.00">Clients</text>
</g>
<g id="clust2" class="cluster">
<title>cluster_channels</title>
<polygon fill="none" stroke="black" points="162,-255 162,-350 550,-350 550,-255 162,-255"/>
<text text-anchor="middle" x="356" y="-332.7" font-family="Times,serif" font-size="14.00">Channels</text>
</g>
<g id="clust3" class="cluster">
<title>cluster_msgblocks</title>
<polygon fill="none" stroke="black" stroke-dasharray="5,2" points="166.5,-8 166.5,-94 545.5,-94 545.5,-8 166.5,-8"/>
<text text-anchor="middle" x="356" y="-76.7" font-family="Times,serif" font-size="14.00">MsgBlocks</text>
</g>
<!-- rank1 -->
<g id="node1" class="node">
<title>rank1</title>
</g>
<!-- rank2 -->
<g id="node2" class="node">
<title>rank2</title>
</g>
<!-- rank1&#45;&gt;rank2 -->
<!-- Server -->
<g id="node14" class="node">
<title>Server</title>
<polygon fill="none" stroke="black" points="50.5,-316.25 0,-316.25 0,-265.75 50.5,-265.75 50.5,-316.25"/>
<text text-anchor="middle" x="25.25" y="-285.57" font-family="Times,serif" font-size="14.00">Server</text>
</g>
<!-- rank1&#45;&gt;Server -->
<!-- rank3 -->
<g id="node3" class="node">
<title>rank3</title>
</g>
<!-- rank2&#45;&gt;rank3 -->
<!-- a -->
<g id="node4" class="node">
<title>a</title>
<polygon fill="none" stroke="black" points="215.5,-146 179.5,-146 179.5,-110 215.5,-110 215.5,-146"/>
<text text-anchor="middle" x="197.5" y="-122.58" font-family="Times,serif" font-size="14.00">a</text>
</g>
<!-- rank3&#45;&gt;a -->
<!-- b -->
<g id="node5" class="node">
<title>b</title>
<polygon fill="none" stroke="black" points="297,-146 261,-146 261,-110 297,-110 297,-146"/>
<text text-anchor="middle" x="279" y="-122.58" font-family="Times,serif" font-size="14.00">b</text>
</g>
<!-- a&#45;&gt;b -->
<!-- chan1 -->
<g id="node9" class="node">
<title>chan1</title>
<polygon fill="none" stroke="black" points="225,-318.5 170,-318.5 170,-263.5 225,-263.5 225,-318.5"/>
<text text-anchor="middle" x="197.5" y="-285.57" font-family="Times,serif" font-size="14.00">#chan1</text>
</g>
<!-- a&#45;&gt;chan1 -->
<g id="edge10" class="edge">
<title>a&#45;&gt;chan1</title>
<path fill="none" stroke="black" d="M202.92,-146.46C211.95,-181.68 213.41,-216.9 207.31,-252.12"/>
<polygon fill="black" stroke="black" points="203.95,-251.08 205.46,-261.57 210.81,-252.42 203.95,-251.08"/>
</g>
<!-- a&#45;&gt;chan1 -->
<!-- chan2 -->
<g id="node10" class="node">
<title>chan2</title>
<polygon fill="none" stroke="black" points="542,-318.5 487,-318.5 487,-263.5 542,-263.5 542,-318.5"/>
<text text-anchor="middle" x="514.5" y="-285.57" font-family="Times,serif" font-size="14.00">#chan2</text>
</g>
<!-- a&#45;&gt;chan2 -->
<g id="edge11" class="edge">
<title>a&#45;&gt;chan2</title>
<path fill="none" stroke="black" d="M205.2,-146.15C214.35,-168.39 232.9,-205.62 261,-226 295.17,-250.78 413.54,-273.95 475.31,-284.71"/>
<polygon fill="black" stroke="black" points="474.57,-288.13 485.02,-286.37 475.76,-281.23 474.57,-288.13"/>
</g>
<!-- Msg1 -->
<g id="node11" class="node">
<title>Msg1</title>
<polygon fill="none" stroke="black" points="220.5,-62 174.5,-62 174.5,-16 220.5,-16 220.5,-62"/>
<text text-anchor="middle" x="197.5" y="-33.58" font-family="Times,serif" font-size="14.00">Msg1</text>
</g>
<!-- a&#45;&gt;Msg1 -->
<g id="edge20" class="edge">
<title>a&#45;&gt;Msg1</title>
<path fill="none" stroke="black" d="M197.5,-109.52C197.5,-97.59 197.5,-85.66 197.5,-73.73"/>
<polygon fill="black" stroke="black" points="201,-73.81 197.5,-63.81 194,-73.81 201,-73.81"/>
</g>
<!-- a&#45;&gt;Server -->
<g id="edge25" class="edge">
<title>a&#45;&gt;Server</title>
<path fill="none" stroke="black" d="M171.27,-152.15C138.79,-183.25 82.72,-236.94 50.64,-267.65"/>
<polygon fill="black" stroke="black" points="171.56,-163.42 171.07,-152.84 164.86,-161.42 171.56,-163.42"/>
</g>
<!-- c -->
<g id="node6" class="node">
<title>c</title>
<polygon fill="none" stroke="black" points="369,-146 333,-146 333,-110 369,-110 369,-146"/>
<text text-anchor="middle" x="351" y="-122.58" font-family="Times,serif" font-size="14.00">c</text>
</g>
<!-- b&#45;&gt;c -->
<!-- b&#45;&gt;chan1 -->
<g id="edge12" class="edge">
<title>b&#45;&gt;chan1</title>
<path fill="none" stroke="black" d="M272.22,-146.48C268.87,-153.81 264.62,-161.81 261,-169 246.88,-197.03 231.7,-228.8 219.84,-253"/>
<polygon fill="black" stroke="black" points="216.76,-251.33 215.47,-261.84 223.04,-254.42 216.76,-251.33"/>
</g>
<!-- b&#45;&gt;Msg1 -->
<g id="edge21" class="edge">
<title>b&#45;&gt;Msg1</title>
<path fill="none" stroke="black" d="M261.51,-109.54C251.49,-98.32 238.42,-83.69 226.78,-70.66"/>
<polygon fill="black" stroke="black" points="229.67,-68.64 220.4,-63.51 224.45,-73.3 229.67,-68.64"/>
</g>
<!-- d -->
<g id="node7" class="node">
<title>d</title>
<polygon fill="none" stroke="black" points="446,-146 410,-146 410,-110 446,-110 446,-146"/>
<text text-anchor="middle" x="428" y="-122.58" font-family="Times,serif" font-size="14.00">d</text>
</g>
<!-- c&#45;&gt;d -->
<!-- c&#45;&gt;chan1 -->
<g id="edge13" class="edge">
<title>c&#45;&gt;chan1</title>
<path fill="none" stroke="black" d="M333.12,-146.16C308.73,-172.4 263.15,-221.45 231.83,-255.14"/>
<polygon fill="black" stroke="black" points="229.47,-252.53 225.23,-262.24 234.6,-257.3 229.47,-252.53"/>
</g>
<!-- c&#45;&gt;Msg1 -->
<g id="edge22" class="edge">
<title>c&#45;&gt;Msg1</title>
<path fill="none" stroke="black" d="M332.74,-117.86C307.88,-103.26 261.58,-76.06 230.4,-57.74"/>
<polygon fill="black" stroke="black" points="232.55,-54.95 222.16,-52.9 229.01,-60.98 232.55,-54.95"/>
</g>
<!-- Msg2 -->
<g id="node12" class="node">
<title>Msg2</title>
<polygon fill="none" stroke="black" points="451,-62 405,-62 405,-16 451,-16 451,-62"/>
<text text-anchor="middle" x="428" y="-33.58" font-family="Times,serif" font-size="14.00">Msg2</text>
</g>
<!-- c&#45;&gt;Msg2 -->
<g id="edge23" class="edge">
<title>c&#45;&gt;Msg2</title>
<path fill="none" stroke="black" d="M367.54,-109.56C376.95,-98.39 389.22,-83.84 400.16,-70.85"/>
<polygon fill="black" stroke="black" points="402.73,-73.23 406.5,-63.33 397.37,-68.72 402.73,-73.23"/>
</g>
<!-- e -->
<g id="node8" class="node">
<title>e</title>
<polygon fill="none" stroke="black" points="532.5,-146 496.5,-146 496.5,-110 532.5,-110 532.5,-146"/>
<text text-anchor="middle" x="514.5" y="-122.58" font-family="Times,serif" font-size="14.00">e</text>
</g>
<!-- d&#45;&gt;e -->
<!-- d&#45;&gt;chan2 -->
<g id="edge14" class="edge">
<title>d&#45;&gt;chan2</title>
<path fill="none" stroke="black" d="M436.35,-146.19C448.36,-172.1 472.66,-219.66 490.8,-253.27"/>
<polygon fill="black" stroke="black" points="487.63,-254.77 495.48,-261.88 493.78,-251.43 487.63,-254.77"/>
</g>
<!-- Msg3 -->
<g id="node13" class="node">
<title>Msg3</title>
<polygon fill="none" stroke="black" points="537.5,-62 491.5,-62 491.5,-16 537.5,-16 537.5,-62"/>
<text text-anchor="middle" x="514.5" y="-33.58" font-family="Times,serif" font-size="14.00">Msg3</text>
</g>
<!-- d&#45;&gt;Msg3 -->
<g id="edge24" class="edge">
<title>d&#45;&gt;Msg3</title>
<path fill="none" stroke="black" d="M446.1,-109.99C456.88,-98.63 471.1,-83.66 483.7,-70.39"/>
<polygon fill="black" stroke="black" points="485.9,-73.15 490.25,-63.49 480.82,-68.33 485.9,-73.15"/>
</g>
<!-- chan1&#45;&gt;a -->
<g id="edge15" class="edge">
<title>chan1&#45;&gt;a</title>
<path fill="none" stroke="black" stroke-dasharray="5,2" d="M197.5,-263.05C197.5,-227.99 197.5,-192.92 197.5,-157.85"/>
<polygon fill="black" stroke="black" points="201,-157.98 197.5,-147.98 194,-157.98 201,-157.98"/>
</g>
<!-- chan1&#45;&gt;b -->
<g id="edge16" class="edge">
<title>chan1&#45;&gt;b</title>
<path fill="none" stroke="black" stroke-dasharray="5,2" d="M208.39,-263.17C219.54,-236.71 238.46,-196.22 258.37,-156.32"/>
<polygon fill="black" stroke="black" points="261.42,-158.06 262.77,-147.56 255.16,-154.92 261.42,-158.06"/>
</g>
<!-- chan1&#45;&gt;c -->
<g id="edge17" class="edge">
<title>chan1&#45;&gt;c</title>
<path fill="none" stroke="black" stroke-dasharray="5,2" d="M225.39,-274.58C246.56,-260.76 275.9,-239.52 297,-216 313.13,-198.02 327.02,-174.44 336.53,-156.21"/>
<polygon fill="black" stroke="black" points="339.53,-158.03 340.93,-147.53 333.29,-154.87 339.53,-158.03"/>
</g>
<!-- chan1&#45;&gt;chan2 -->
<!-- chan1&#45;&gt;Msg1 -->
<!-- chan2&#45;&gt;a -->
<g id="edge19" class="edge">
<title>chan2&#45;&gt;a</title>
<path fill="none" stroke="black" stroke-dasharray="5,2" d="M486.78,-277.17C427.62,-246.56 286.06,-173.31 226.09,-142.28"/>
<polygon fill="black" stroke="black" points="227.72,-139.18 217.23,-137.69 224.5,-145.4 227.72,-139.18"/>
</g>
<!-- chan2&#45;&gt;d -->
<g id="edge18" class="edge">
<title>chan2&#45;&gt;d</title>
<path fill="none" stroke="black" stroke-dasharray="5,2" d="M501.55,-263.08C487.21,-233.19 463.05,-186.34 446.58,-156.32"/>
<polygon fill="black" stroke="black" points="449.76,-154.82 441.84,-147.78 443.64,-158.22 449.76,-154.82"/>
</g>
<!-- Msg1&#45;&gt;Msg2 -->
<!-- Msg2&#45;&gt;Msg3 -->
<!-- Server&#45;&gt;chan1 -->
<g id="edge26" class="edge">
<title>Server&#45;&gt;chan1</title>
<path fill="none" stroke="black" stroke-dasharray="5,2" d="M50.64,-291C78.73,-291 125.22,-291 158.16,-291"/>
<polygon fill="black" stroke="black" points="150.49,-294.5 160.49,-291 150.49,-287.5 150.49,-294.5"/>
</g>
</g>
</svg>
